HIERARCHY
ROOT joint_Root
{
  OFFSET 0 0 0
  CHANNELS 6 Xposition Yposition Zposition Zrotation Xrotation Yrotation
  JOINT Hips
  {
    OFFSET 0.847027 93.984 -452.225
    CHANNELS 6 Xposition Yposition Zposition Zrotation Xrotation Yrotation
    JOINT Spine
    {
      OFFSET 15.7357 0 0
      CHANNELS 6 Xposition Yposition Zposition Zrotation Xrotation Yrotation
      JOINT Chest
      {
        OFFSET 8.98455 -0.406207 0
        CHANNELS 6 Xposition Yposition Zposition Zrotation Xrotation Yrotation
        JOINT Neck
        {
          OFFSET 16.3773 0 0
          CHANNELS 6 Xposition Yposition Zposition Zrotation Xrotation Yrotation
          JOINT Head
          {
            OFFSET 6.45672 0 0
            CHANNELS 6 Xposition Yposition Zposition Zrotation Xrotation Yrotation
            End Site
            {
              OFFSET 0 0 0
            }
          }
        }
        JOINT Shoulder_L
        {
          OFFSET 12.9942 -0.242716 4.98039
          CHANNELS 6 Xposition Yposition Zposition Zrotation Xrotation Yrotation
          JOINT UpperArm_L
          {
            OFFSET 5.34809 0 0
            CHANNELS 6 Xposition Yposition Zposition Zrotation Xrotation Yrotation
            JOINT LowerArm_L
            {
              OFFSET 24.3286 1.87007e-05 0
              CHANNELS 6 Xposition Yposition Zposition Zrotation Xrotation Yrotation
              JOINT Hand_L
              {
                OFFSET 22.2916 0 0
                CHANNELS 6 Xposition Yposition Zposition Zrotation Xrotation Yrotation
                End Site
                {
                  OFFSET 0 0 0
                }
              }
            }
          }
        }
        JOINT Shoulder_R
        {
          OFFSET 12.9945 -0.242716 -4.98039
          CHANNELS 6 Xposition Yposition Zposition Zrotation Xrotation Yrotation
          JOINT UpperArm_R
          {
            OFFSET -5.34813 0 0
            CHANNELS 6 Xposition Yposition Zposition Zrotation Xrotation Yrotation
            JOINT LowerArm_R
            {
              OFFSET -24.3289 0.000322201 0
              CHANNELS 6 Xposition Yposition Zposition Zrotation Xrotation Yrotation
              JOINT Hand_R
              {
                OFFSET -22.2915 -0.000108084 0
                CHANNELS 6 Xposition Yposition Zposition Zrotation Xrotation Yrotation
                End Site
                {
                  OFFSET 0 0 0
                }
              }
            }
          }
        }
      }
    }
    JOINT UpperLeg_L
    {
      OFFSET -2.19248 -6.46944 0
      CHANNELS 6 Xposition Yposition Zposition Zrotation Xrotation Yrotation
      JOINT LowerLeg_L
      {
        OFFSET 39.0811 0 -1.23785e-05
        CHANNELS 6 Xposition Yposition Zposition Zrotation Xrotation Yrotation
        JOINT Foot_L
        {
          OFFSET 40.9854 0 -1.26872e-05
          CHANNELS 6 Xposition Yposition Zposition Zrotation Xrotation Yrotation
          JOINT Toes_L
          {
            OFFSET 11.7543 0 0
            CHANNELS 6 Xposition Yposition Zposition Zrotation Xrotation Yrotation
            End Site
            {
              OFFSET 0 0 0
            }
          }
        }
      }
    }
    JOINT UpperLeg_R
    {
      OFFSET -2.19251 6.46944 0
      CHANNELS 6 Xposition Yposition Zposition Zrotation Xrotation Yrotation
      JOINT LowerLeg_R
      {
        OFFSET -39.0811 -0.00228153 -0.0401928
        CHANNELS 6 Xposition Yposition Zposition Zrotation Xrotation Yrotation
        JOINT Foot_R
        {
          OFFSET -40.9854 0 0
          CHANNELS 6 Xposition Yposition Zposition Zrotation Xrotation Yrotation
          JOINT Toes_R
          {
            OFFSET -11.7543 0 0
            CHANNELS 6 Xposition Yposition Zposition Zrotation Xrotation Yrotation
            End Site
            {
              OFFSET 0 0 0
            }
          }
        }
      }
    }
  }
}
MOTION
Frames:	4
Frame Time:	0.0333333
0 0 0 0 0 -0 6.67187 90.614 -440.606 87.6738 -3.87452 1.53668 15.7357 5.1072e-06 -5.51765e-07 86.6442 77.3674 -85.8645 8.98455 -0.406207 -4.3199e-07 17.4698 -1.3875 1.77538 16.3773 -1.3905e-06 -6.99897e-07 6.41285 -1.16076 -1.54895 6.45672 -1.25837e-06 -1.02172e-07 2.75821 0.0212461 -3.40726 12.9942 -0.242716 4.98039 -90.8583 6.36829 -97.3073 5.34809 -7.22636e-06 -6.2814e-07 -43.6732 13.7252 -35.684 24.3286 1.87007e-05 4.90208e-06 -3.88123 -6.98716 -29.1489 22.2916 -9.88446e-07 4.63217e-06 21.4446 5.58855 -10.68 12.9945 -0.242716 -4.98039 88.6907 9.34833 -96.9907 -5.34813 -1.25947e-06 -3.79883e-06 -64.0253 7.68237 -2.15998 -24.3289 0.000322201 -8.65921e-06 3.10696 7.98195 -21.3569 -22.2915 -0.000108084 -4.47941e-06 10.9309 5.32943 -0.768874 -2.19248 -6.46944 -1.22533e-07 -175.383 -8.50629 6.93372 39.0811 -6.73843e-06 -1.23785e-05 0.00949275 0.0148453 25.3183 40.9854 -6.48686e-06 -1.26872e-05 1.78902 9.75997 -72.1531 11.7543 -2.30145e-07 3.05095e-06 0.18127 -0.310364 -21.9797 -2.19251 6.46944 -1.45247e-06 -171.769 22.7894 159.608 -39.0811 -0.00228153 -0.0401928 0.00311179 0.0915861 0.034864 -40.9854 7.72618e-06 5.99936e-06 -14.3308 4.42491 -52.448 -11.7543 -5.6619e-06 -5.58687e-06 0.309942 -0.366691 -20.1049 
0 0 0 0 0 -0 6.25898 89.9274 -437.529 88.2802 -2.82988 1.33406 15.7357 5.1072e-06 -5.51765e-07 86.6214 77.3078 -85.6715 8.98455 -0.406207 -4.3199e-07 17.5903 -1.3886 2.11815 16.3773 -1.3905e-06 -6.99897e-07 6.11602 -1.3414 -1.41068 6.45672 -1.25837e-06 -1.02172e-07 2.18537 -0.190078 -3.05712 12.9942 -0.242716 4.98039 -90.8933 6.495 -97.1516 5.34809 -7.22636e-06 -6.2814e-07 -44.1161 14.7714 -35.5245 24.3286 1.87007e-05 4.90208e-06 -4.05641 -7.02362 -30.1868 22.2916 -9.88446e-07 4.63217e-06 21.6013 5.58968 -10.7442 12.9945 -0.242716 -4.98039 88.6644 9.47776 -96.941 -5.34813 -1.25947e-06 -3.79883e-06 -63.9735 7.00351 -1.47941 -24.3289 0.000322201 -8.65921e-06 3.02258 8.06838 -20.6239 -22.2915 -0.000108084 -4.47941e-06 10.8096 5.32645 -0.681824 -2.19248 -6.46944 -1.22534e-07 -175.249 -8.03913 8.02317 39.0811 -6.73843e-06 -1.23785e-05 0.00822324 0.0199607 26.5369 40.9854 -6.48686e-06 -1.26872e-05 1.42217 10.8066 -72.4713 11.7543 -2.30145e-07 3.05095e-06 0.237716 -0.422915 -23.8714 -2.19251 6.46944 -1.45247e-06 -171.617 23.3665 158.893 -39.0811 -0.00228153 -0.0401928 -0.0576827 0.015308 1.22381 -40.9854 7.72618e-06 5.99936e-06 -13.8209 2.76949 -52.3446 -11.7543 -5.6619e-06 -5.58687e-06 0.326362 -0.387444 -20.2993 
0 0 0 0 0 -0 5.59053 89.3239 -434.184 87.8187 -1.6021 0.59179 15.7357 5.1072e-06 -5.51765e-07 86.7409 77.4052 -85.1654 8.98455 -0.406207 -4.3199e-07 17.4061 -1.27532 3.35192 16.3773 -1.3905e-06 -6.99897e-07 6.21059 -1.42579 -1.2654 6.45672 -1.25837e-06 -1.02172e-07 1.42626 -0.250329 -3.12333 12.9942 -0.242716 4.98039 -90.9742 7.05094 -97.1136 5.34809 -7.22636e-06 -6.2814e-07 -44.6526 16.1773 -34.4016 24.3286 1.87007e-05 4.90208e-06 -4.23134 -7.06602 -31.0787 22.2916 -9.88446e-07 4.63217e-06 21.5857 5.59461 -11.0248 12.9945 -0.242716 -4.98039 88.648 9.81742 -97.1192 -5.34813 -1.25947e-06 -3.79883e-06 -63.3891 6.64765 -1.07134 -24.3289 0.000322201 -8.65921e-06 2.95777 8.13654 -20.0622 -22.2915 -0.000108084 -4.47941e-06 10.6981 5.32147 -0.537892 -2.19248 -6.46944 -1.22533e-07 -173.731 -7.63098 8.25153 39.0811 -6.73843e-06 -1.23785e-05 0.0123295 0.0137856 28.5256 40.9854 -6.48686e-06 -1.26872e-05 0.942362 12.3486 -72.2347 11.7543 -2.30145e-07 3.05095e-06 0.310709 -0.584059 -26.5291 -2.19251 6.46944 -1.45247e-06 -169.56 21.6538 152.579 -39.0811 -0.00228153 -0.0401928 -0.0978573 0.372696 13.8304 -40.9854 7.72618e-06 5.99936e-06 0.53912 1.03245 -55.8229 -11.7543 -5.6619e-06 -5.58687e-06 0.312843 -0.370373 -20.1393 
0 0 0 0 0 -0 4.6522 88.8889 -430.727 86.5245 0.330389 -0.881066 15.7357 5.1072e-06 -5.51765e-07 86.9858 77.7895 -84.4095 8.98455 -0.406207 -4.3199e-07 16.653 -1.06454 5.31572 16.3773 -1.3905e-06 -6.99897e-07 6.72521 -1.85034 -0.853224 6.45672 -1.25837e-06 -1.02172e-07 0.418446 -0.356258 -3.21701 12.9942 -0.242716 4.98039 -91.0626 7.94183 -97.3539 5.34809 -7.22636e-06 -6.2814e-07 -45.0149 18.2806 -32.7864 24.3286 1.87007e-05 4.90208e-06 -4.00131 -6.59319 -31.3583 22.2916 -9.88446e-07 4.63217e-06 21.4887 5.59447 -11.0165 12.9945 -0.242716 -4.98039 88.4785 10.7292 -96.88 -5.34813 -1.25947e-06 -3.79883e-06 -62.0932 6.54444 -0.655373 -24.3289 0.000322201 -8.65921e-06 2.93738 8.0626 -20.1017 -22.2915 -0.000108084 -4.47941e-06 10.4035 5.31828 -0.446412 -2.19248 -6.46944 -1.22534e-07 -170.853 -7.41074 6.39327 39.0811 -6.73843e-06 -1.23785e-05 0.0327597 -0.0184425 32.3095 40.9854 -6.48686e-06 -1.26872e-05 0.351565 14.9776 -70.4067 11.7543 -2.30145e-07 3.05095e-06 0.422208 -0.879718 -31.2771 -2.19251 6.46944 -1.45247e-06 -167.473 19.7385 150.729 -39.0811 -0.00228153 -0.0401928 -0.0112519 0.0533087 15.879 -40.9854 7.72618e-06 5.99936e-06 8.79701 -0.131721 -49.389 -11.7543 -5.6619e-06 -5.58687e-06 0.236586 -0.275686 -19.2454 
